# Blender 3.6.1
# www.blender.org
mtllib DownsideTank.mtl
o 立方体
v -0.349787 -0.500000 0.009780
v -0.466066 -0.398928 0.060481
v -0.349787 -0.500000 0.275687
v -0.466066 -0.398928 0.224986
v -0.466066 0.398928 0.060481
v -0.349787 0.500000 0.009780
v -0.349787 0.500000 0.275687
v -0.466066 0.398928 0.224986
v 0.466066 -0.398928 0.060481
v 0.349787 -0.500000 0.009780
v 0.349787 -0.500000 0.275687
v 0.466066 -0.398928 0.224986
v 0.466066 0.398928 0.060481
v 0.349787 0.500000 0.009780
v 0.466066 0.398928 0.224986
v 0.349787 0.500000 0.275687
vn -0.0000 -1.0000 -0.0000
vn 1.0000 -0.0000 -0.0000
vn -0.0000 -0.0000 1.0000
vn -1.0000 -0.0000 -0.0000
vn -0.0000 1.0000 -0.0000
vn -0.3997 -0.0000 -0.9167
vn -0.6560 -0.7547 -0.0000
vn -0.3997 -0.0000 0.9167
vn -0.6560 0.7547 -0.0000
vn 0.6560 0.7547 -0.0000
vn 0.3997 -0.0000 -0.9167
vn 0.3997 -0.0000 0.9167
vn 0.6560 -0.7547 -0.0000
vn -0.0000 -0.0000 -1.0000
vt 0.625000 0.775268
vt 0.375000 0.974732
vt 0.375000 0.775268
vt 0.556084 0.525268
vt 0.443916 0.724732
vt 0.443916 0.525268
vt 0.849732 0.500000
vt 0.650268 0.750000
vt 0.650268 0.500000
vt 0.556084 0.025268
vt 0.443916 0.224732
vt 0.443916 0.025268
vt 0.625000 0.275268
vt 0.375000 0.474732
vt 0.375000 0.275268
vt 0.375000 0.000000
vt 0.375000 0.250000
vt 0.625000 0.000000
vt 0.625000 0.250000
vt 0.556084 0.224732
vt 0.625000 0.474732
vt 0.349732 0.500000
vt 0.349732 0.750000
vt 0.556084 0.724732
vt 0.150268 0.750000
vt 0.150268 0.500000
vt 0.625000 0.974732
vt 0.849732 0.750000
s 0
f 11/1/1 1/2/1 10/3/1
f 15/4/2 9/5/2 13/6/2
f 7/7/3 11/8/3 16/9/3
f 4/10/4 5/11/4 2/12/4
f 7/13/5 14/14/5 6/15/5
f 1/16/6 5/11/6 6/17/6
f 3/18/7 2/12/7 1/16/7
f 7/19/8 4/10/8 3/18/8
f 7/13/9 5/11/9 8/20/9
f 13/6/10 16/21/10 15/4/10
f 14/22/11 9/5/11 10/23/11
f 11/8/12 15/4/12 16/9/12
f 11/1/13 9/5/13 12/24/13
f 14/22/14 1/25/14 6/26/14
f 11/1/1 3/27/1 1/2/1
f 15/4/2 12/24/2 9/5/2
f 7/7/3 3/28/3 11/8/3
f 4/10/4 8/20/4 5/11/4
f 7/13/5 16/21/5 14/14/5
f 1/16/6 2/12/6 5/11/6
f 3/18/7 4/10/7 2/12/7
f 7/19/8 8/20/8 4/10/8
f 7/13/9 6/15/9 5/11/9
f 13/6/10 14/14/10 16/21/10
f 14/22/11 13/6/11 9/5/11
f 11/8/12 12/24/12 15/4/12
f 11/1/13 10/3/13 9/5/13
f 14/22/14 10/23/14 1/25/14
